<svg id="visual" viewBox="0 0 1520 600" width="1520" height="600" xmlns="http://www.w3.org/2000/svg" xmlns:xlink="http://www.w3.org/1999/xlink" version="1.1"><rect x="0" y="0" width="1520" height="600" fill="#000000"></rect><defs><linearGradient id="grad1_0" x1="60.5%" y1="100%" x2="100%" y2="0%"><stop offset="-0.6666666666666643%" stop-color="#000000" stop-opacity="1"></stop><stop offset="100.66666666666667%" stop-color="#000000" stop-opacity="1"></stop></linearGradient></defs><defs><linearGradient id="grad2_0" x1="0%" y1="100%" x2="39.5%" y2="0%"><stop offset="-0.6666666666666643%" stop-color="#000000" stop-opacity="1"></stop><stop offset="100.66666666666667%" stop-color="#000000" stop-opacity="1"></stop></linearGradient></defs><g transform="translate(1520, 600)"><path d="M-540 0C-530.9 -70.3 -521.7 -140.6 -497 -205.9C-472.4 -271.2 -432.1 -331.5 -381.8 -381.8C-331.5 -432.1 -271.2 -472.4 -205.9 -497C-140.6 -521.7 -70.3 -530.9 0 -540L0 0Z" fill="#ffffff"></path></g><g transform="translate(0, 0)"><path d="M540 0C509.3 60.9 478.7 121.7 457.3 189.4C436 257.1 423.9 331.6 381.8 381.8C339.8 432.1 267.6 458.1 199 480.4C130.4 502.7 65.2 521.4 0 540L0 0Z" fill="#ffffff"></path></g></svg>