<svg id="visual" viewBox="0 0 1580 600" width="1580" height="600" xmlns="http://www.w3.org/2000/svg" xmlns:xlink="http://www.w3.org/1999/xlink" version="1.1"><rect x="0" y="0" width="1580" height="600" fill="#000000"></rect><defs><linearGradient id="grad1_0" x1="62%" y1="100%" x2="100%" y2="0%"><stop offset="-2.666666666666668%" stop-color="#000000" stop-opacity="1"></stop><stop offset="102.66666666666667%" stop-color="#000000" stop-opacity="1"></stop></linearGradient></defs><defs><linearGradient id="grad2_0" x1="0%" y1="100%" x2="38%" y2="0%"><stop offset="-2.666666666666668%" stop-color="#000000" stop-opacity="1"></stop><stop offset="102.66666666666667%" stop-color="#000000" stop-opacity="1"></stop></linearGradient></defs><g transform="translate(1580, 600)"><path d="M-540 0C-512.8 -63.3 -485.6 -126.5 -461.9 -191.3C-438.3 -256.1 -418.2 -322.5 -376.9 -376.9C-335.6 -431.3 -273 -473.7 -206.6 -498.9C-140.3 -524.1 -70.1 -532 0 -540L0 0Z" fill="#ffffff"></path></g><g transform="translate(0, 0)"><path d="M540 0C532.4 70.9 524.8 141.8 498.9 206.6C473 271.5 428.7 330.2 376.2 376.2C323.7 422.1 263.1 455.2 199 480.4C134.9 505.6 67.5 522.8 0 540L0 0Z" fill="#ffffff"></path></g></svg>